<svg width="42" height="42" viewBox="0 0 42 42" fill="none" xmlns="http://www.w3.org/2000/svg">
<rect width="42" height="42" rx="21" fill="#E7FE55"/>
<path d="M16.449 28.1233C16.449 30.6064 14.4361 32.6193 11.953 32.6193C9.46986 32.6193 7.45691 30.6064 7.45691 28.1233C7.45691 25.6401 9.46986 23.6272 11.953 23.6272C14.4361 23.6272 16.449 25.6401 16.449 28.1233Z" fill="#0F1511"/>
<path d="M34.5415 14.0392C34.5415 16.5223 32.5286 18.5353 30.0455 18.5353C27.5624 18.5353 25.5494 16.5223 25.5494 14.0392C25.5494 11.5561 27.5624 9.54318 30.0455 9.54318C32.5286 9.54318 34.5415 11.5561 34.5415 14.0392Z" fill="#0F1511"/>
<path d="M7.43665 11.4838C11.0832 8.45517 16.4944 8.9561 19.523 12.6026L34.4011 30.5162C30.7545 33.5448 25.3433 33.0439 22.3147 29.3974L7.43665 11.4838Z" fill="#0F1511"/>
</svg>
